<mxfile host="app.diagrams.net" agent="Mozilla/5.0 (Windows NT 10.0; Win64; x64) AppleWebKit/537.36 (KHTML, like Gecko) Chrome/138.0.0.0 Safari/537.36" version="28.0.7">
  <diagram name="Page-1" id="Emb7Dh-6iNZfS9ods2BP">
    <mxGraphModel dx="2977" dy="1506" grid="1" gridSize="10" guides="1" tooltips="1" connect="1" arrows="1" fold="1" page="1" pageScale="1" pageWidth="827" pageHeight="1169" math="0" shadow="0">
      <root>
        <mxCell id="0" />
        <mxCell id="1" parent="0" />
        <mxCell id="VEjhf8Zj3Xtpxm1VYq64-1" value="" style="rounded=0;whiteSpace=wrap;html=1;" parent="1" vertex="1">
          <mxGeometry x="60" y="120" width="250" height="510" as="geometry" />
        </mxCell>
        <mxCell id="VEjhf8Zj3Xtpxm1VYq64-2" value="" style="rounded=0;whiteSpace=wrap;html=1;" parent="1" vertex="1">
          <mxGeometry x="95" y="200" width="180" height="30" as="geometry" />
        </mxCell>
        <mxCell id="VEjhf8Zj3Xtpxm1VYq64-3" value="" style="rounded=0;whiteSpace=wrap;html=1;" parent="1" vertex="1">
          <mxGeometry x="95" y="270" width="180" height="30" as="geometry" />
        </mxCell>
        <mxCell id="VEjhf8Zj3Xtpxm1VYq64-5" value="Register" style="rounded=0;whiteSpace=wrap;html=1;" parent="1" vertex="1">
          <mxGeometry x="120" y="490" width="120" height="30" as="geometry" />
        </mxCell>
        <mxCell id="VEjhf8Zj3Xtpxm1VYq64-6" value="" style="rounded=0;whiteSpace=wrap;html=1;" parent="1" vertex="1">
          <mxGeometry x="95" y="410" width="180" height="30" as="geometry" />
        </mxCell>
        <mxCell id="VEjhf8Zj3Xtpxm1VYq64-7" value="" style="rounded=0;whiteSpace=wrap;html=1;" parent="1" vertex="1">
          <mxGeometry x="95" y="340" width="180" height="30" as="geometry" />
        </mxCell>
        <mxCell id="VEjhf8Zj3Xtpxm1VYq64-8" value="&lt;font style=&quot;font-size: 15px;&quot;&gt;Register&lt;/font&gt;" style="text;html=1;align=center;verticalAlign=middle;whiteSpace=wrap;rounded=0;" parent="1" vertex="1">
          <mxGeometry x="140" y="140" width="60" height="30" as="geometry" />
        </mxCell>
        <mxCell id="VEjhf8Zj3Xtpxm1VYq64-9" value="Name" style="text;html=1;align=center;verticalAlign=middle;whiteSpace=wrap;rounded=0;" parent="1" vertex="1">
          <mxGeometry x="95" y="170" width="60" height="30" as="geometry" />
        </mxCell>
        <mxCell id="VEjhf8Zj3Xtpxm1VYq64-12" value="Batch" style="text;html=1;align=center;verticalAlign=middle;whiteSpace=wrap;rounded=0;" parent="1" vertex="1">
          <mxGeometry x="95" y="380" width="60" height="30" as="geometry" />
        </mxCell>
        <mxCell id="VEjhf8Zj3Xtpxm1VYq64-14" value="Password" style="text;html=1;align=center;verticalAlign=middle;whiteSpace=wrap;rounded=0;" parent="1" vertex="1">
          <mxGeometry x="95" y="240" width="60" height="30" as="geometry" />
        </mxCell>
        <mxCell id="VEjhf8Zj3Xtpxm1VYq64-15" value="course" style="text;html=1;align=center;verticalAlign=middle;whiteSpace=wrap;rounded=0;" parent="1" vertex="1">
          <mxGeometry x="95" y="310" width="60" height="30" as="geometry" />
        </mxCell>
        <mxCell id="VEjhf8Zj3Xtpxm1VYq64-16" value="" style="rounded=0;whiteSpace=wrap;html=1;" parent="1" vertex="1">
          <mxGeometry x="370" y="120" width="250" height="510" as="geometry" />
        </mxCell>
        <mxCell id="VEjhf8Zj3Xtpxm1VYq64-17" value="&lt;font style=&quot;font-size: 15px;&quot;&gt;Login&lt;/font&gt;" style="text;html=1;align=center;verticalAlign=middle;whiteSpace=wrap;rounded=0;" parent="1" vertex="1">
          <mxGeometry x="465" y="140" width="60" height="30" as="geometry" />
        </mxCell>
        <mxCell id="VEjhf8Zj3Xtpxm1VYq64-18" value="" style="rounded=0;whiteSpace=wrap;html=1;" parent="1" vertex="1">
          <mxGeometry x="405" y="200" width="180" height="30" as="geometry" />
        </mxCell>
        <mxCell id="VEjhf8Zj3Xtpxm1VYq64-19" value="" style="rounded=0;whiteSpace=wrap;html=1;" parent="1" vertex="1">
          <mxGeometry x="405" y="270" width="180" height="30" as="geometry" />
        </mxCell>
        <mxCell id="VEjhf8Zj3Xtpxm1VYq64-20" value="Login" style="rounded=0;whiteSpace=wrap;html=1;" parent="1" vertex="1">
          <mxGeometry x="440" y="360" width="110" height="30" as="geometry" />
        </mxCell>
        <mxCell id="VEjhf8Zj3Xtpxm1VYq64-22" value="Name" style="text;html=1;align=center;verticalAlign=middle;whiteSpace=wrap;rounded=0;" parent="1" vertex="1">
          <mxGeometry x="400" y="170" width="60" height="30" as="geometry" />
        </mxCell>
        <mxCell id="VEjhf8Zj3Xtpxm1VYq64-26" value="Password" style="text;html=1;align=center;verticalAlign=middle;whiteSpace=wrap;rounded=0;" parent="1" vertex="1">
          <mxGeometry x="405" y="240" width="60" height="30" as="geometry" />
        </mxCell>
        <mxCell id="VEjhf8Zj3Xtpxm1VYq64-27" value="" style="rounded=0;whiteSpace=wrap;html=1;" parent="1" vertex="1">
          <mxGeometry x="670" y="120" width="250" height="510" as="geometry" />
        </mxCell>
        <mxCell id="VEjhf8Zj3Xtpxm1VYq64-28" value="&lt;font style=&quot;font-size: 15px;&quot;&gt;Feedback Form&lt;/font&gt;" style="text;html=1;align=center;verticalAlign=middle;whiteSpace=wrap;rounded=0;" parent="1" vertex="1">
          <mxGeometry x="730" y="140" width="140" height="30" as="geometry" />
        </mxCell>
        <mxCell id="VEjhf8Zj3Xtpxm1VYq64-29" value="" style="rounded=0;whiteSpace=wrap;html=1;" parent="1" vertex="1">
          <mxGeometry x="695" y="280" width="180" height="30" as="geometry" />
        </mxCell>
        <mxCell id="VEjhf8Zj3Xtpxm1VYq64-30" value="" style="rounded=0;whiteSpace=wrap;html=1;" parent="1" vertex="1">
          <mxGeometry x="700" y="345" width="180" height="25" as="geometry" />
        </mxCell>
        <mxCell id="VEjhf8Zj3Xtpxm1VYq64-31" value="" style="rounded=0;whiteSpace=wrap;html=1;" parent="1" vertex="1">
          <mxGeometry x="700" y="430" width="180" height="20" as="geometry" />
        </mxCell>
        <mxCell id="VEjhf8Zj3Xtpxm1VYq64-32" value="" style="rounded=0;whiteSpace=wrap;html=1;" parent="1" vertex="1">
          <mxGeometry x="700" y="520" width="180" height="30" as="geometry" />
        </mxCell>
        <mxCell id="VEjhf8Zj3Xtpxm1VYq64-33" value="Select Faculty&amp;nbsp;" style="text;html=1;align=center;verticalAlign=middle;whiteSpace=wrap;rounded=0;" parent="1" vertex="1">
          <mxGeometry x="695" y="180" width="90" height="30" as="geometry" />
        </mxCell>
        <mxCell id="VEjhf8Zj3Xtpxm1VYq64-34" value="Questions 1" style="text;html=1;align=center;verticalAlign=middle;whiteSpace=wrap;rounded=0;" parent="1" vertex="1">
          <mxGeometry x="680" y="320" width="120" height="30" as="geometry" />
        </mxCell>
        <mxCell id="VEjhf8Zj3Xtpxm1VYq64-35" value="Question 2" style="text;html=1;align=center;verticalAlign=middle;whiteSpace=wrap;rounded=0;" parent="1" vertex="1">
          <mxGeometry x="675" y="400" width="120" height="30" as="geometry" />
        </mxCell>
        <mxCell id="VEjhf8Zj3Xtpxm1VYq64-37" value="Submit" style="rounded=0;whiteSpace=wrap;html=1;" parent="1" vertex="1">
          <mxGeometry x="730" y="580" width="110" height="30" as="geometry" />
        </mxCell>
        <mxCell id="VEjhf8Zj3Xtpxm1VYq64-38" value="" style="rounded=0;whiteSpace=wrap;html=1;" parent="1" vertex="1">
          <mxGeometry x="970" y="120" width="250" height="510" as="geometry" />
        </mxCell>
        <mxCell id="VEjhf8Zj3Xtpxm1VYq64-39" value="&lt;font style=&quot;font-size: 15px;&quot;&gt;Feedback Submitted Succesfully&lt;/font&gt;" style="text;html=1;align=center;verticalAlign=middle;whiteSpace=wrap;rounded=0;" parent="1" vertex="1">
          <mxGeometry x="1000" y="320" width="190" height="80" as="geometry" />
        </mxCell>
        <mxCell id="VEjhf8Zj3Xtpxm1VYq64-40" value="" style="rounded=0;whiteSpace=wrap;html=1;" parent="1" vertex="1">
          <mxGeometry x="60" y="750" width="250" height="490" as="geometry" />
        </mxCell>
        <mxCell id="VEjhf8Zj3Xtpxm1VYq64-41" value="&lt;font style=&quot;font-size: 15px;&quot;&gt;Register&lt;/font&gt;" style="text;html=1;align=center;verticalAlign=middle;whiteSpace=wrap;rounded=0;" parent="1" vertex="1">
          <mxGeometry x="155" y="780" width="60" height="30" as="geometry" />
        </mxCell>
        <mxCell id="VEjhf8Zj3Xtpxm1VYq64-42" value="&lt;font style=&quot;font-size: 27px;&quot;&gt;Student&lt;/font&gt;" style="rounded=0;whiteSpace=wrap;html=1;" parent="1" vertex="1">
          <mxGeometry x="50" y="30" width="180" height="60" as="geometry" />
        </mxCell>
        <mxCell id="VEjhf8Zj3Xtpxm1VYq64-43" value="&lt;font style=&quot;font-size: 25px;&quot;&gt;Faculty&lt;/font&gt;" style="rounded=0;whiteSpace=wrap;html=1;" parent="1" vertex="1">
          <mxGeometry x="37.5" y="670" width="265" height="60" as="geometry" />
        </mxCell>
        <mxCell id="VEjhf8Zj3Xtpxm1VYq64-45" value="" style="rounded=0;whiteSpace=wrap;html=1;" parent="1" vertex="1">
          <mxGeometry x="90" y="840" width="180" height="30" as="geometry" />
        </mxCell>
        <mxCell id="VEjhf8Zj3Xtpxm1VYq64-46" value="Name" style="text;html=1;align=center;verticalAlign=middle;whiteSpace=wrap;rounded=0;" parent="1" vertex="1">
          <mxGeometry x="90" y="810" width="60" height="30" as="geometry" />
        </mxCell>
        <mxCell id="VEjhf8Zj3Xtpxm1VYq64-47" value="" style="rounded=0;whiteSpace=wrap;html=1;" parent="1" vertex="1">
          <mxGeometry x="90" y="920" width="180" height="30" as="geometry" />
        </mxCell>
        <mxCell id="VEjhf8Zj3Xtpxm1VYq64-48" value="Password" style="text;html=1;align=center;verticalAlign=middle;whiteSpace=wrap;rounded=0;" parent="1" vertex="1">
          <mxGeometry x="90" y="890" width="60" height="30" as="geometry" />
        </mxCell>
        <mxCell id="VEjhf8Zj3Xtpxm1VYq64-49" value="" style="rounded=0;whiteSpace=wrap;html=1;" parent="1" vertex="1">
          <mxGeometry x="90" y="1000" width="180" height="30" as="geometry" />
        </mxCell>
        <mxCell id="VEjhf8Zj3Xtpxm1VYq64-50" value="Email" style="text;html=1;align=center;verticalAlign=middle;whiteSpace=wrap;rounded=0;" parent="1" vertex="1">
          <mxGeometry x="90" y="970" width="60" height="30" as="geometry" />
        </mxCell>
        <mxCell id="VEjhf8Zj3Xtpxm1VYq64-51" value="" style="rounded=0;whiteSpace=wrap;html=1;" parent="1" vertex="1">
          <mxGeometry x="90" y="1070" width="180" height="30" as="geometry" />
        </mxCell>
        <mxCell id="VEjhf8Zj3Xtpxm1VYq64-52" value="Role" style="text;html=1;align=center;verticalAlign=middle;whiteSpace=wrap;rounded=0;" parent="1" vertex="1">
          <mxGeometry x="85" y="1040" width="60" height="30" as="geometry" />
        </mxCell>
        <mxCell id="VEjhf8Zj3Xtpxm1VYq64-53" value="Register" style="rounded=0;whiteSpace=wrap;html=1;" parent="1" vertex="1">
          <mxGeometry x="120" y="1190" width="110" height="30" as="geometry" />
        </mxCell>
        <mxCell id="VEjhf8Zj3Xtpxm1VYq64-54" value="" style="rounded=0;whiteSpace=wrap;html=1;" parent="1" vertex="1">
          <mxGeometry x="370" y="750" width="250" height="490" as="geometry" />
        </mxCell>
        <mxCell id="VEjhf8Zj3Xtpxm1VYq64-55" value="&lt;font style=&quot;font-size: 15px;&quot;&gt;Login&lt;/font&gt;" style="text;html=1;align=center;verticalAlign=middle;whiteSpace=wrap;rounded=0;" parent="1" vertex="1">
          <mxGeometry x="465" y="780" width="60" height="30" as="geometry" />
        </mxCell>
        <mxCell id="VEjhf8Zj3Xtpxm1VYq64-56" value="" style="rounded=0;whiteSpace=wrap;html=1;" parent="1" vertex="1">
          <mxGeometry x="405" y="840" width="180" height="30" as="geometry" />
        </mxCell>
        <mxCell id="VEjhf8Zj3Xtpxm1VYq64-57" value="" style="rounded=0;whiteSpace=wrap;html=1;" parent="1" vertex="1">
          <mxGeometry x="405" y="930" width="180" height="30" as="geometry" />
        </mxCell>
        <mxCell id="VEjhf8Zj3Xtpxm1VYq64-58" value="Name" style="text;html=1;align=center;verticalAlign=middle;whiteSpace=wrap;rounded=0;" parent="1" vertex="1">
          <mxGeometry x="405" y="810" width="60" height="30" as="geometry" />
        </mxCell>
        <mxCell id="VEjhf8Zj3Xtpxm1VYq64-60" value="Password" style="text;html=1;align=center;verticalAlign=middle;whiteSpace=wrap;rounded=0;" parent="1" vertex="1">
          <mxGeometry x="405" y="900" width="60" height="30" as="geometry" />
        </mxCell>
        <mxCell id="VEjhf8Zj3Xtpxm1VYq64-61" value="Login" style="rounded=0;whiteSpace=wrap;html=1;" parent="1" vertex="1">
          <mxGeometry x="430" y="1030" width="110" height="30" as="geometry" />
        </mxCell>
        <mxCell id="VEjhf8Zj3Xtpxm1VYq64-62" value="" style="rounded=0;whiteSpace=wrap;html=1;" parent="1" vertex="1">
          <mxGeometry x="675" y="750" width="315" height="490" as="geometry" />
        </mxCell>
        <mxCell id="VEjhf8Zj3Xtpxm1VYq64-63" value="&lt;font style=&quot;font-size: 15px;&quot;&gt;Login as Trainer/Lab Mentor&lt;/font&gt;" style="text;html=1;align=center;verticalAlign=middle;whiteSpace=wrap;rounded=0;" parent="1" vertex="1">
          <mxGeometry x="730" y="770" width="190" height="30" as="geometry" />
        </mxCell>
        <mxCell id="VEjhf8Zj3Xtpxm1VYq64-128" value="" style="rounded=0;whiteSpace=wrap;html=1;" parent="1" vertex="1">
          <mxGeometry x="85" y="1139" width="180" height="30" as="geometry" />
        </mxCell>
        <mxCell id="VEjhf8Zj3Xtpxm1VYq64-129" value="Subject" style="text;html=1;align=center;verticalAlign=middle;whiteSpace=wrap;rounded=0;" parent="1" vertex="1">
          <mxGeometry x="85" y="1110" width="60" height="30" as="geometry" />
        </mxCell>
        <mxCell id="z9GfBnEFzwdRncz5XC2e-1" value="&lt;font style=&quot;font-size: 27px;&quot;&gt;Admin&lt;/font&gt;" style="rounded=0;whiteSpace=wrap;html=1;" parent="1" vertex="1">
          <mxGeometry x="65" y="1430" width="232.5" height="60" as="geometry" />
        </mxCell>
        <mxCell id="z9GfBnEFzwdRncz5XC2e-4" value="" style="rounded=0;whiteSpace=wrap;html=1;" parent="1" vertex="1">
          <mxGeometry x="65" y="1500" width="295" height="610" as="geometry" />
        </mxCell>
        <mxCell id="z9GfBnEFzwdRncz5XC2e-5" value="Login" style="text;html=1;align=center;verticalAlign=middle;whiteSpace=wrap;rounded=0;fontSize=23;" parent="1" vertex="1">
          <mxGeometry x="170" y="1540" width="60" height="10" as="geometry" />
        </mxCell>
        <mxCell id="z9GfBnEFzwdRncz5XC2e-6" value="" style="rounded=0;whiteSpace=wrap;html=1;" parent="1" vertex="1">
          <mxGeometry x="90" y="1630" width="240" height="50" as="geometry" />
        </mxCell>
        <mxCell id="z9GfBnEFzwdRncz5XC2e-7" value="" style="rounded=0;whiteSpace=wrap;html=1;" parent="1" vertex="1">
          <mxGeometry x="92.5" y="1740" width="240" height="50" as="geometry" />
        </mxCell>
        <mxCell id="z9GfBnEFzwdRncz5XC2e-8" value="" style="rounded=0;whiteSpace=wrap;html=1;" parent="1" vertex="1">
          <mxGeometry x="140" y="1880" width="120" height="40" as="geometry" />
        </mxCell>
        <mxCell id="z9GfBnEFzwdRncz5XC2e-9" value="Login" style="text;html=1;align=center;verticalAlign=middle;whiteSpace=wrap;rounded=0;fontSize=23;" parent="1" vertex="1">
          <mxGeometry x="180" y="1895" width="60" height="10" as="geometry" />
        </mxCell>
        <mxCell id="z9GfBnEFzwdRncz5XC2e-10" value="Username" style="text;html=1;align=center;verticalAlign=middle;whiteSpace=wrap;rounded=0;fontSize=18;" parent="1" vertex="1">
          <mxGeometry x="95" y="1590" width="95" height="30" as="geometry" />
        </mxCell>
        <mxCell id="z9GfBnEFzwdRncz5XC2e-13" value="Password" style="text;html=1;align=center;verticalAlign=middle;whiteSpace=wrap;rounded=0;fontSize=17;" parent="1" vertex="1">
          <mxGeometry x="105" y="1710" width="60" height="30" as="geometry" />
        </mxCell>
        <mxCell id="z9GfBnEFzwdRncz5XC2e-16" value="" style="rounded=0;whiteSpace=wrap;html=1;" parent="1" vertex="1">
          <mxGeometry x="415" y="1500" width="295" height="610" as="geometry" />
        </mxCell>
        <mxCell id="z9GfBnEFzwdRncz5XC2e-18" value="" style="rounded=0;whiteSpace=wrap;html=1;" parent="1" vertex="1">
          <mxGeometry x="418.75" y="1520" width="287.5" height="40" as="geometry" />
        </mxCell>
        <mxCell id="z9GfBnEFzwdRncz5XC2e-19" value="" style="whiteSpace=wrap;html=1;aspect=fixed;" parent="1" vertex="1">
          <mxGeometry x="665" y="1525" width="30" height="30" as="geometry" />
        </mxCell>
        <mxCell id="z9GfBnEFzwdRncz5XC2e-20" value="" style="endArrow=none;html=1;rounded=0;" parent="1" edge="1">
          <mxGeometry width="50" height="50" relative="1" as="geometry">
            <mxPoint x="670" y="1530" as="sourcePoint" />
            <mxPoint x="690" y="1530" as="targetPoint" />
          </mxGeometry>
        </mxCell>
        <mxCell id="z9GfBnEFzwdRncz5XC2e-23" value="" style="endArrow=none;html=1;rounded=0;" parent="1" edge="1">
          <mxGeometry width="50" height="50" relative="1" as="geometry">
            <mxPoint x="675" y="1540" as="sourcePoint" />
            <mxPoint x="675" y="1540" as="targetPoint" />
            <Array as="points">
              <mxPoint x="675" y="1540" />
            </Array>
          </mxGeometry>
        </mxCell>
        <mxCell id="z9GfBnEFzwdRncz5XC2e-26" value="" style="endArrow=none;html=1;rounded=0;" parent="1" edge="1">
          <mxGeometry width="50" height="50" relative="1" as="geometry">
            <mxPoint x="670" y="1540" as="sourcePoint" />
            <mxPoint x="690" y="1540" as="targetPoint" />
          </mxGeometry>
        </mxCell>
        <mxCell id="z9GfBnEFzwdRncz5XC2e-27" value="" style="endArrow=none;html=1;rounded=0;" parent="1" edge="1">
          <mxGeometry width="50" height="50" relative="1" as="geometry">
            <mxPoint x="670" y="1550" as="sourcePoint" />
            <mxPoint x="690" y="1550" as="targetPoint" />
          </mxGeometry>
        </mxCell>
        <mxCell id="z9GfBnEFzwdRncz5XC2e-28" value="Schedule Feedback" style="text;html=1;align=center;verticalAlign=middle;whiteSpace=wrap;rounded=0;fontSize=16;" parent="1" vertex="1">
          <mxGeometry x="400" y="1600" width="210" height="30" as="geometry" />
        </mxCell>
        <mxCell id="z9GfBnEFzwdRncz5XC2e-30" value="" style="rounded=0;whiteSpace=wrap;html=1;" parent="1" vertex="1">
          <mxGeometry x="430" y="1630" width="240" height="40" as="geometry" />
        </mxCell>
        <mxCell id="z9GfBnEFzwdRncz5XC2e-31" value="" style="rounded=0;whiteSpace=wrap;html=1;" parent="1" vertex="1">
          <mxGeometry x="430" y="1714" width="240" height="40" as="geometry" />
        </mxCell>
        <mxCell id="z9GfBnEFzwdRncz5XC2e-32" value="&lt;font style=&quot;font-size: 17px;&quot;&gt;FilledFeedback&lt;/font&gt;" style="text;html=1;align=center;verticalAlign=middle;whiteSpace=wrap;rounded=0;" parent="1" vertex="1">
          <mxGeometry x="465" y="1684" width="60" height="30" as="geometry" />
        </mxCell>
        <mxCell id="z9GfBnEFzwdRncz5XC2e-33" value="" style="rounded=0;whiteSpace=wrap;html=1;" parent="1" vertex="1">
          <mxGeometry x="840" y="1280" width="170" height="240" as="geometry" />
        </mxCell>
        <mxCell id="z9GfBnEFzwdRncz5XC2e-34" value="Add Course" style="text;html=1;align=center;verticalAlign=middle;whiteSpace=wrap;rounded=0;fontSize=17;" parent="1" vertex="1">
          <mxGeometry x="855" y="1370" width="100" height="30" as="geometry" />
        </mxCell>
        <mxCell id="z9GfBnEFzwdRncz5XC2e-35" value="Add Faculty" style="text;html=1;align=center;verticalAlign=middle;whiteSpace=wrap;rounded=0;fontSize=18;" parent="1" vertex="1">
          <mxGeometry x="830" y="1335" width="150" height="30" as="geometry" />
        </mxCell>
        <mxCell id="z9GfBnEFzwdRncz5XC2e-36" value="Add Student" style="text;html=1;align=center;verticalAlign=middle;whiteSpace=wrap;rounded=0;fontSize=18;" parent="1" vertex="1">
          <mxGeometry x="810" y="1300" width="190" height="30" as="geometry" />
        </mxCell>
        <mxCell id="z9GfBnEFzwdRncz5XC2e-37" value="Add Batch" style="text;strokeColor=none;align=center;fillColor=none;html=1;verticalAlign=middle;whiteSpace=wrap;rounded=0;fontSize=17;" parent="1" vertex="1">
          <mxGeometry x="840" y="1400" width="120" height="30" as="geometry" />
        </mxCell>
        <mxCell id="z9GfBnEFzwdRncz5XC2e-38" value="Add Questions" style="text;strokeColor=none;align=center;fillColor=none;html=1;verticalAlign=middle;whiteSpace=wrap;rounded=0;fontSize=17;" parent="1" vertex="1">
          <mxGeometry x="855" y="1430" width="125" height="30" as="geometry" />
        </mxCell>
        <mxCell id="z9GfBnEFzwdRncz5XC2e-39" value="" style="endArrow=classic;html=1;rounded=0;entryX=0;entryY=0;entryDx=0;entryDy=0;" parent="1" target="z9GfBnEFzwdRncz5XC2e-37" edge="1">
          <mxGeometry width="50" height="50" relative="1" as="geometry">
            <mxPoint x="690" y="1540" as="sourcePoint" />
            <mxPoint x="770" y="1390" as="targetPoint" />
            <Array as="points" />
          </mxGeometry>
        </mxCell>
        <mxCell id="z9GfBnEFzwdRncz5XC2e-40" value="" style="endArrow=classic;html=1;rounded=0;exitX=1;exitY=0.5;exitDx=0;exitDy=0;" parent="1" source="z9GfBnEFzwdRncz5XC2e-30" edge="1">
          <mxGeometry width="50" height="50" relative="1" as="geometry">
            <mxPoint x="760" y="1770" as="sourcePoint" />
            <mxPoint x="810" y="1650" as="targetPoint" />
            <Array as="points" />
          </mxGeometry>
        </mxCell>
        <mxCell id="z9GfBnEFzwdRncz5XC2e-42" value="" style="rounded=0;whiteSpace=wrap;html=1;" parent="1" vertex="1">
          <mxGeometry x="810" y="1540" width="305" height="315" as="geometry" />
        </mxCell>
        <mxCell id="z9GfBnEFzwdRncz5XC2e-44" value="" style="rounded=0;whiteSpace=wrap;html=1;" parent="1" vertex="1">
          <mxGeometry x="827" y="1550" width="183" height="30" as="geometry" />
        </mxCell>
        <mxCell id="z9GfBnEFzwdRncz5XC2e-47" value="Select Faculty" style="text;html=1;align=center;verticalAlign=middle;whiteSpace=wrap;rounded=0;fontSize=16;" parent="1" vertex="1">
          <mxGeometry x="825" y="1550" width="130" height="30" as="geometry" />
        </mxCell>
        <mxCell id="z9GfBnEFzwdRncz5XC2e-50" value="" style="rounded=0;whiteSpace=wrap;html=1;" parent="1" vertex="1">
          <mxGeometry x="833.5" y="1654" width="176.5" height="30" as="geometry" />
        </mxCell>
        <mxCell id="z9GfBnEFzwdRncz5XC2e-51" value="" style="rounded=0;whiteSpace=wrap;html=1;" parent="1" vertex="1">
          <mxGeometry x="830" y="1600" width="183" height="30" as="geometry" />
        </mxCell>
        <mxCell id="z9GfBnEFzwdRncz5XC2e-52" value="&lt;font style=&quot;font-size: 16px;&quot;&gt;Course&lt;/font&gt;" style="text;html=1;align=center;verticalAlign=middle;whiteSpace=wrap;rounded=0;fontSize=15;" parent="1" vertex="1">
          <mxGeometry x="800" y="1600" width="120" height="30" as="geometry" />
        </mxCell>
        <mxCell id="z9GfBnEFzwdRncz5XC2e-54" value="Type" style="text;html=1;align=center;verticalAlign=middle;whiteSpace=wrap;rounded=0;fontSize=15;" parent="1" vertex="1">
          <mxGeometry x="827" y="1654" width="60" height="30" as="geometry" />
        </mxCell>
        <mxCell id="z9GfBnEFzwdRncz5XC2e-55" value="&lt;font style=&quot;font-size: 16px;&quot;&gt;Subject&lt;/font&gt;" style="rounded=0;whiteSpace=wrap;html=1;align=left;" parent="1" vertex="1">
          <mxGeometry x="830" y="1700" width="183" height="30" as="geometry" />
        </mxCell>
        <mxCell id="z9GfBnEFzwdRncz5XC2e-56" value="" style="rounded=0;whiteSpace=wrap;html=1;" parent="1" vertex="1">
          <mxGeometry x="830" y="1750" width="176.5" height="30" as="geometry" />
        </mxCell>
        <mxCell id="z9GfBnEFzwdRncz5XC2e-57" value="&lt;font style=&quot;font-size: 15px;&quot;&gt;Date&lt;/font&gt;" style="text;html=1;align=center;verticalAlign=middle;whiteSpace=wrap;rounded=0;" parent="1" vertex="1">
          <mxGeometry x="827" y="1754" width="60" height="30" as="geometry" />
        </mxCell>
        <mxCell id="z9GfBnEFzwdRncz5XC2e-58" value="&lt;font style=&quot;font-size: 15px;&quot;&gt;Schedule&lt;/font&gt;" style="rounded=0;whiteSpace=wrap;html=1;" parent="1" vertex="1">
          <mxGeometry x="865" y="1790" width="100" height="30" as="geometry" />
        </mxCell>
        <mxCell id="z9GfBnEFzwdRncz5XC2e-59" value="" style="endArrow=classic;html=1;rounded=0;exitX=1;exitY=0.75;exitDx=0;exitDy=0;entryX=0;entryY=0.25;entryDx=0;entryDy=0;" parent="1" source="z9GfBnEFzwdRncz5XC2e-31" edge="1">
          <mxGeometry width="50" height="50" relative="1" as="geometry">
            <mxPoint x="870" y="1980" as="sourcePoint" />
            <mxPoint x="827" y="1946.25" as="targetPoint" />
            <Array as="points" />
          </mxGeometry>
        </mxCell>
        <mxCell id="z9GfBnEFzwdRncz5XC2e-75" value="" style="rounded=0;whiteSpace=wrap;html=1;" parent="1" vertex="1">
          <mxGeometry x="827" y="1920" width="373" height="240" as="geometry" />
        </mxCell>
        <mxCell id="z9GfBnEFzwdRncz5XC2e-76" value="" style="shape=table;startSize=0;container=1;collapsible=0;childLayout=tableLayout;fontSize=16;" parent="1" vertex="1">
          <mxGeometry x="855" y="1940" width="312" height="200" as="geometry" />
        </mxCell>
        <mxCell id="z9GfBnEFzwdRncz5XC2e-77" value="" style="shape=tableRow;horizontal=0;startSize=0;swimlaneHead=0;swimlaneBody=0;strokeColor=inherit;top=0;left=0;bottom=0;right=0;collapsible=0;dropTarget=0;fillColor=none;points=[[0,0.5],[1,0.5]];portConstraint=eastwest;fontSize=16;" parent="z9GfBnEFzwdRncz5XC2e-76" vertex="1">
          <mxGeometry width="312" height="53" as="geometry" />
        </mxCell>
        <mxCell id="z9GfBnEFzwdRncz5XC2e-78" value="&lt;font style=&quot;font-size: 12px;&quot;&gt;Faculty ID&lt;/font&gt;" style="shape=partialRectangle;html=1;whiteSpace=wrap;connectable=0;strokeColor=inherit;overflow=hidden;fillColor=none;top=0;left=0;bottom=0;right=0;pointerEvents=1;fontSize=16;" parent="z9GfBnEFzwdRncz5XC2e-77" vertex="1">
          <mxGeometry width="47" height="53" as="geometry">
            <mxRectangle width="47" height="53" as="alternateBounds" />
          </mxGeometry>
        </mxCell>
        <mxCell id="z9GfBnEFzwdRncz5XC2e-79" value="&lt;span style=&quot;font-size: 12px;&quot;&gt;Faculty Name&lt;/span&gt;" style="shape=partialRectangle;html=1;whiteSpace=wrap;connectable=0;strokeColor=inherit;overflow=hidden;fillColor=none;top=0;left=0;bottom=0;right=0;pointerEvents=1;fontSize=16;" parent="z9GfBnEFzwdRncz5XC2e-77" vertex="1">
          <mxGeometry x="47" width="88" height="53" as="geometry">
            <mxRectangle width="88" height="53" as="alternateBounds" />
          </mxGeometry>
        </mxCell>
        <mxCell id="z9GfBnEFzwdRncz5XC2e-80" value="&lt;span style=&quot;font-size: 12px;&quot;&gt;Subject&lt;/span&gt;" style="shape=partialRectangle;html=1;whiteSpace=wrap;connectable=0;strokeColor=inherit;overflow=hidden;fillColor=none;top=0;left=0;bottom=0;right=0;pointerEvents=1;fontSize=16;" parent="z9GfBnEFzwdRncz5XC2e-77" vertex="1">
          <mxGeometry x="135" width="75" height="53" as="geometry">
            <mxRectangle width="75" height="53" as="alternateBounds" />
          </mxGeometry>
        </mxCell>
        <mxCell id="EYPC8Mh5b557JFCI0_-K-64" style="shape=partialRectangle;html=1;whiteSpace=wrap;connectable=0;strokeColor=inherit;overflow=hidden;fillColor=none;top=0;left=0;bottom=0;right=0;pointerEvents=1;fontSize=16;" vertex="1" parent="z9GfBnEFzwdRncz5XC2e-77">
          <mxGeometry x="210" width="102" height="53" as="geometry">
            <mxRectangle width="102" height="53" as="alternateBounds" />
          </mxGeometry>
        </mxCell>
        <mxCell id="z9GfBnEFzwdRncz5XC2e-81" value="" style="shape=tableRow;horizontal=0;startSize=0;swimlaneHead=0;swimlaneBody=0;strokeColor=inherit;top=0;left=0;bottom=0;right=0;collapsible=0;dropTarget=0;fillColor=none;points=[[0,0.5],[1,0.5]];portConstraint=eastwest;fontSize=16;" parent="z9GfBnEFzwdRncz5XC2e-76" vertex="1">
          <mxGeometry y="53" width="312" height="75" as="geometry" />
        </mxCell>
        <mxCell id="z9GfBnEFzwdRncz5XC2e-82" value="&lt;font style=&quot;font-size: 14px;&quot;&gt;001&lt;/font&gt;" style="shape=partialRectangle;html=1;whiteSpace=wrap;connectable=0;strokeColor=inherit;overflow=hidden;fillColor=none;top=0;left=0;bottom=0;right=0;pointerEvents=1;fontSize=16;" parent="z9GfBnEFzwdRncz5XC2e-81" vertex="1">
          <mxGeometry width="47" height="75" as="geometry">
            <mxRectangle width="47" height="75" as="alternateBounds" />
          </mxGeometry>
        </mxCell>
        <mxCell id="z9GfBnEFzwdRncz5XC2e-83" value="&lt;font style=&quot;font-size: 14px;&quot;&gt;Manjusha&lt;/font&gt;" style="shape=partialRectangle;html=1;whiteSpace=wrap;connectable=0;strokeColor=inherit;overflow=hidden;fillColor=none;top=0;left=0;bottom=0;right=0;pointerEvents=1;fontSize=16;" parent="z9GfBnEFzwdRncz5XC2e-81" vertex="1">
          <mxGeometry x="47" width="88" height="75" as="geometry">
            <mxRectangle width="88" height="75" as="alternateBounds" />
          </mxGeometry>
        </mxCell>
        <mxCell id="z9GfBnEFzwdRncz5XC2e-84" value="Java" style="shape=partialRectangle;html=1;whiteSpace=wrap;connectable=0;strokeColor=inherit;overflow=hidden;fillColor=none;top=0;left=0;bottom=0;right=0;pointerEvents=1;fontSize=16;" parent="z9GfBnEFzwdRncz5XC2e-81" vertex="1">
          <mxGeometry x="135" width="75" height="75" as="geometry">
            <mxRectangle width="75" height="75" as="alternateBounds" />
          </mxGeometry>
        </mxCell>
        <mxCell id="EYPC8Mh5b557JFCI0_-K-65" value="&lt;font&gt;Review&lt;/font&gt;" style="shape=partialRectangle;html=1;whiteSpace=wrap;connectable=0;strokeColor=inherit;overflow=hidden;fillColor=none;top=0;left=0;bottom=0;right=0;pointerEvents=1;fontSize=16;" vertex="1" parent="z9GfBnEFzwdRncz5XC2e-81">
          <mxGeometry x="210" width="102" height="75" as="geometry">
            <mxRectangle width="102" height="75" as="alternateBounds" />
          </mxGeometry>
        </mxCell>
        <mxCell id="z9GfBnEFzwdRncz5XC2e-85" value="" style="shape=tableRow;horizontal=0;startSize=0;swimlaneHead=0;swimlaneBody=0;strokeColor=inherit;top=0;left=0;bottom=0;right=0;collapsible=0;dropTarget=0;fillColor=none;points=[[0,0.5],[1,0.5]];portConstraint=eastwest;fontSize=16;" parent="z9GfBnEFzwdRncz5XC2e-76" vertex="1">
          <mxGeometry y="128" width="312" height="72" as="geometry" />
        </mxCell>
        <mxCell id="z9GfBnEFzwdRncz5XC2e-86" value="&lt;font style=&quot;font-size: 14px;&quot;&gt;002&lt;/font&gt;" style="shape=partialRectangle;html=1;whiteSpace=wrap;connectable=0;strokeColor=inherit;overflow=hidden;fillColor=none;top=0;left=0;bottom=0;right=0;pointerEvents=1;fontSize=16;" parent="z9GfBnEFzwdRncz5XC2e-85" vertex="1">
          <mxGeometry width="47" height="72" as="geometry">
            <mxRectangle width="47" height="72" as="alternateBounds" />
          </mxGeometry>
        </mxCell>
        <mxCell id="z9GfBnEFzwdRncz5XC2e-87" value="&lt;span style=&quot;font-size: 14px;&quot;&gt;Shreyas&lt;/span&gt;" style="shape=partialRectangle;html=1;whiteSpace=wrap;connectable=0;strokeColor=inherit;overflow=hidden;fillColor=none;top=0;left=0;bottom=0;right=0;pointerEvents=1;fontSize=16;" parent="z9GfBnEFzwdRncz5XC2e-85" vertex="1">
          <mxGeometry x="47" width="88" height="72" as="geometry">
            <mxRectangle width="88" height="72" as="alternateBounds" />
          </mxGeometry>
        </mxCell>
        <mxCell id="z9GfBnEFzwdRncz5XC2e-88" value="DSA" style="shape=partialRectangle;html=1;whiteSpace=wrap;connectable=0;strokeColor=inherit;overflow=hidden;fillColor=none;top=0;left=0;bottom=0;right=0;pointerEvents=1;fontSize=16;" parent="z9GfBnEFzwdRncz5XC2e-85" vertex="1">
          <mxGeometry x="135" width="75" height="72" as="geometry">
            <mxRectangle width="75" height="72" as="alternateBounds" />
          </mxGeometry>
        </mxCell>
        <mxCell id="EYPC8Mh5b557JFCI0_-K-66" value="Review" style="shape=partialRectangle;html=1;whiteSpace=wrap;connectable=0;strokeColor=inherit;overflow=hidden;fillColor=none;top=0;left=0;bottom=0;right=0;pointerEvents=1;fontSize=16;" vertex="1" parent="z9GfBnEFzwdRncz5XC2e-85">
          <mxGeometry x="210" width="102" height="72" as="geometry">
            <mxRectangle width="102" height="72" as="alternateBounds" />
          </mxGeometry>
        </mxCell>
        <mxCell id="z9GfBnEFzwdRncz5XC2e-91" value="" style="endArrow=classic;html=1;rounded=0;" parent="1" edge="1">
          <mxGeometry width="50" height="50" relative="1" as="geometry">
            <mxPoint x="1200" y="2030" as="sourcePoint" />
            <mxPoint x="1310" y="2031" as="targetPoint" />
            <Array as="points" />
          </mxGeometry>
        </mxCell>
        <mxCell id="z9GfBnEFzwdRncz5XC2e-92" value="" style="rounded=0;whiteSpace=wrap;html=1;" parent="1" vertex="1">
          <mxGeometry x="1320" y="1905" width="430" height="255" as="geometry" />
        </mxCell>
        <mxCell id="z9GfBnEFzwdRncz5XC2e-93" value="" style="shape=table;startSize=0;container=1;collapsible=0;childLayout=tableLayout;fontSize=16;" parent="1" vertex="1">
          <mxGeometry x="1330" y="1917.5" width="400" height="230" as="geometry" />
        </mxCell>
        <mxCell id="z9GfBnEFzwdRncz5XC2e-94" value="" style="shape=tableRow;horizontal=0;startSize=0;swimlaneHead=0;swimlaneBody=0;strokeColor=inherit;top=0;left=0;bottom=0;right=0;collapsible=0;dropTarget=0;fillColor=none;points=[[0,0.5],[1,0.5]];portConstraint=eastwest;fontSize=16;" parent="z9GfBnEFzwdRncz5XC2e-93" vertex="1">
          <mxGeometry width="400" height="73" as="geometry" />
        </mxCell>
        <mxCell id="z9GfBnEFzwdRncz5XC2e-95" value="&lt;font style=&quot;font-size: 12px;&quot;&gt;Stud ID&lt;/font&gt;" style="shape=partialRectangle;html=1;whiteSpace=wrap;connectable=0;strokeColor=inherit;overflow=hidden;fillColor=none;top=0;left=0;bottom=0;right=0;pointerEvents=1;fontSize=16;" parent="z9GfBnEFzwdRncz5XC2e-94" vertex="1">
          <mxGeometry width="100" height="73" as="geometry">
            <mxRectangle width="100" height="73" as="alternateBounds" />
          </mxGeometry>
        </mxCell>
        <mxCell id="z9GfBnEFzwdRncz5XC2e-96" value="&lt;span style=&quot;font-size: 12px;&quot;&gt;Stud Name&lt;/span&gt;" style="shape=partialRectangle;html=1;whiteSpace=wrap;connectable=0;strokeColor=inherit;overflow=hidden;fillColor=none;top=0;left=0;bottom=0;right=0;pointerEvents=1;fontSize=16;" parent="z9GfBnEFzwdRncz5XC2e-94" vertex="1">
          <mxGeometry x="100" width="101" height="73" as="geometry">
            <mxRectangle width="101" height="73" as="alternateBounds" />
          </mxGeometry>
        </mxCell>
        <mxCell id="z9GfBnEFzwdRncz5XC2e-97" value="&lt;font style=&quot;font-size: 12px;&quot;&gt;comments&lt;/font&gt;" style="shape=partialRectangle;html=1;whiteSpace=wrap;connectable=0;strokeColor=inherit;overflow=hidden;fillColor=none;top=0;left=0;bottom=0;right=0;pointerEvents=1;fontSize=16;" parent="z9GfBnEFzwdRncz5XC2e-94" vertex="1">
          <mxGeometry x="201" width="99" height="73" as="geometry">
            <mxRectangle width="99" height="73" as="alternateBounds" />
          </mxGeometry>
        </mxCell>
        <mxCell id="EYPC8Mh5b557JFCI0_-K-67" style="shape=partialRectangle;html=1;whiteSpace=wrap;connectable=0;strokeColor=inherit;overflow=hidden;fillColor=none;top=0;left=0;bottom=0;right=0;pointerEvents=1;fontSize=16;" vertex="1" parent="z9GfBnEFzwdRncz5XC2e-94">
          <mxGeometry x="300" width="100" height="73" as="geometry">
            <mxRectangle width="100" height="73" as="alternateBounds" />
          </mxGeometry>
        </mxCell>
        <mxCell id="z9GfBnEFzwdRncz5XC2e-98" value="" style="shape=tableRow;horizontal=0;startSize=0;swimlaneHead=0;swimlaneBody=0;strokeColor=inherit;top=0;left=0;bottom=0;right=0;collapsible=0;dropTarget=0;fillColor=none;points=[[0,0.5],[1,0.5]];portConstraint=eastwest;fontSize=16;" parent="z9GfBnEFzwdRncz5XC2e-93" vertex="1">
          <mxGeometry y="73" width="400" height="77" as="geometry" />
        </mxCell>
        <mxCell id="z9GfBnEFzwdRncz5XC2e-99" value="&lt;font style=&quot;font-size: 14px;&quot;&gt;001&lt;/font&gt;" style="shape=partialRectangle;html=1;whiteSpace=wrap;connectable=0;strokeColor=inherit;overflow=hidden;fillColor=none;top=0;left=0;bottom=0;right=0;pointerEvents=1;fontSize=16;" parent="z9GfBnEFzwdRncz5XC2e-98" vertex="1">
          <mxGeometry width="100" height="77" as="geometry">
            <mxRectangle width="100" height="77" as="alternateBounds" />
          </mxGeometry>
        </mxCell>
        <mxCell id="z9GfBnEFzwdRncz5XC2e-100" value="&lt;font style=&quot;font-size: 14px;&quot;&gt;Neha&lt;/font&gt;" style="shape=partialRectangle;html=1;whiteSpace=wrap;connectable=0;strokeColor=inherit;overflow=hidden;fillColor=none;top=0;left=0;bottom=0;right=0;pointerEvents=1;fontSize=16;" parent="z9GfBnEFzwdRncz5XC2e-98" vertex="1">
          <mxGeometry x="100" width="101" height="77" as="geometry">
            <mxRectangle width="101" height="77" as="alternateBounds" />
          </mxGeometry>
        </mxCell>
        <mxCell id="z9GfBnEFzwdRncz5XC2e-101" value="&lt;font style=&quot;font-size: 12px;&quot;&gt;Very clear explanation&lt;/font&gt;" style="shape=partialRectangle;html=1;whiteSpace=wrap;connectable=0;strokeColor=inherit;overflow=hidden;fillColor=none;top=0;left=0;bottom=0;right=0;pointerEvents=1;fontSize=16;" parent="z9GfBnEFzwdRncz5XC2e-98" vertex="1">
          <mxGeometry x="201" width="99" height="77" as="geometry">
            <mxRectangle width="99" height="77" as="alternateBounds" />
          </mxGeometry>
        </mxCell>
        <mxCell id="EYPC8Mh5b557JFCI0_-K-68" value="⭐⭐⭐⭐" style="shape=partialRectangle;html=1;whiteSpace=wrap;connectable=0;strokeColor=inherit;overflow=hidden;fillColor=none;top=0;left=0;bottom=0;right=0;pointerEvents=1;fontSize=16;" vertex="1" parent="z9GfBnEFzwdRncz5XC2e-98">
          <mxGeometry x="300" width="100" height="77" as="geometry">
            <mxRectangle width="100" height="77" as="alternateBounds" />
          </mxGeometry>
        </mxCell>
        <mxCell id="z9GfBnEFzwdRncz5XC2e-102" value="" style="shape=tableRow;horizontal=0;startSize=0;swimlaneHead=0;swimlaneBody=0;strokeColor=inherit;top=0;left=0;bottom=0;right=0;collapsible=0;dropTarget=0;fillColor=none;points=[[0,0.5],[1,0.5]];portConstraint=eastwest;fontSize=16;" parent="z9GfBnEFzwdRncz5XC2e-93" vertex="1">
          <mxGeometry y="150" width="400" height="80" as="geometry" />
        </mxCell>
        <mxCell id="z9GfBnEFzwdRncz5XC2e-103" value="&lt;font style=&quot;font-size: 14px;&quot;&gt;002&lt;/font&gt;" style="shape=partialRectangle;html=1;whiteSpace=wrap;connectable=0;strokeColor=inherit;overflow=hidden;fillColor=none;top=0;left=0;bottom=0;right=0;pointerEvents=1;fontSize=16;" parent="z9GfBnEFzwdRncz5XC2e-102" vertex="1">
          <mxGeometry width="100" height="80" as="geometry">
            <mxRectangle width="100" height="80" as="alternateBounds" />
          </mxGeometry>
        </mxCell>
        <mxCell id="z9GfBnEFzwdRncz5XC2e-104" value="&lt;span style=&quot;font-size: 14px;&quot;&gt;Divya&lt;/span&gt;" style="shape=partialRectangle;html=1;whiteSpace=wrap;connectable=0;strokeColor=inherit;overflow=hidden;fillColor=none;top=0;left=0;bottom=0;right=0;pointerEvents=1;fontSize=16;" parent="z9GfBnEFzwdRncz5XC2e-102" vertex="1">
          <mxGeometry x="100" width="101" height="80" as="geometry">
            <mxRectangle width="101" height="80" as="alternateBounds" />
          </mxGeometry>
        </mxCell>
        <mxCell id="z9GfBnEFzwdRncz5XC2e-105" value="&lt;font style=&quot;font-size: 10px;&quot;&gt;Great teaching style&lt;/font&gt;" style="shape=partialRectangle;html=1;whiteSpace=wrap;connectable=0;strokeColor=inherit;overflow=hidden;fillColor=none;top=0;left=0;bottom=0;right=0;pointerEvents=1;fontSize=16;" parent="z9GfBnEFzwdRncz5XC2e-102" vertex="1">
          <mxGeometry x="201" width="99" height="80" as="geometry">
            <mxRectangle width="99" height="80" as="alternateBounds" />
          </mxGeometry>
        </mxCell>
        <mxCell id="EYPC8Mh5b557JFCI0_-K-69" value="⭐⭐⭐⭐" style="shape=partialRectangle;html=1;whiteSpace=wrap;connectable=0;strokeColor=inherit;overflow=hidden;fillColor=none;top=0;left=0;bottom=0;right=0;pointerEvents=1;fontSize=16;" vertex="1" parent="z9GfBnEFzwdRncz5XC2e-102">
          <mxGeometry x="300" width="100" height="80" as="geometry">
            <mxRectangle width="100" height="80" as="alternateBounds" />
          </mxGeometry>
        </mxCell>
        <mxCell id="EYPC8Mh5b557JFCI0_-K-1" value="&lt;font style=&quot;font-size: 17px;&quot;&gt;Add Subject&lt;/font&gt;" style="text;html=1;align=center;verticalAlign=middle;whiteSpace=wrap;rounded=0;" vertex="1" parent="1">
          <mxGeometry x="860" y="1470" width="105" height="30" as="geometry" />
        </mxCell>
        <mxCell id="EYPC8Mh5b557JFCI0_-K-2" value="" style="rounded=0;whiteSpace=wrap;html=1;" vertex="1" parent="1">
          <mxGeometry x="695" y="210" width="180" height="30" as="geometry" />
        </mxCell>
        <mxCell id="EYPC8Mh5b557JFCI0_-K-3" value="Subject" style="text;html=1;align=center;verticalAlign=middle;whiteSpace=wrap;rounded=0;" vertex="1" parent="1">
          <mxGeometry x="695" y="250" width="60" height="30" as="geometry" />
        </mxCell>
        <mxCell id="EYPC8Mh5b557JFCI0_-K-10" value="Rating" style="text;html=1;align=center;verticalAlign=middle;whiteSpace=wrap;rounded=0;" vertex="1" parent="1">
          <mxGeometry x="1654" y="1940" width="60" height="30" as="geometry" />
        </mxCell>
        <mxCell id="EYPC8Mh5b557JFCI0_-K-13" value="" style="rounded=0;whiteSpace=wrap;html=1;" vertex="1" parent="1">
          <mxGeometry x="830" y="1870" width="240" height="40" as="geometry" />
        </mxCell>
        <mxCell id="EYPC8Mh5b557JFCI0_-K-14" value="&lt;span style=&quot;font-size: 17px;&quot;&gt;Feedback Summary&lt;/span&gt;" style="text;html=1;align=center;verticalAlign=middle;whiteSpace=wrap;rounded=0;" vertex="1" parent="1">
          <mxGeometry x="840" y="1875" width="190" height="30" as="geometry" />
        </mxCell>
        <mxCell id="EYPC8Mh5b557JFCI0_-K-41" value="&lt;span style=&quot;font-size: 12px;&quot;&gt;Activity&lt;/span&gt;" style="shape=partialRectangle;html=1;whiteSpace=wrap;connectable=0;strokeColor=inherit;overflow=hidden;fillColor=none;top=0;left=0;bottom=0;right=0;pointerEvents=1;fontSize=16;" vertex="1" parent="1">
          <mxGeometry x="1084.5" y="1940" width="61" height="53" as="geometry">
            <mxRectangle width="61" height="53" as="alternateBounds" />
          </mxGeometry>
        </mxCell>
        <mxCell id="EYPC8Mh5b557JFCI0_-K-48" value="" style="shape=table;startSize=0;container=1;collapsible=0;childLayout=tableLayout;fontSize=16;" vertex="1" parent="1">
          <mxGeometry x="700" y="920" width="270" height="250" as="geometry" />
        </mxCell>
        <mxCell id="EYPC8Mh5b557JFCI0_-K-49" value="" style="shape=tableRow;horizontal=0;startSize=0;swimlaneHead=0;swimlaneBody=0;strokeColor=inherit;top=0;left=0;bottom=0;right=0;collapsible=0;dropTarget=0;fillColor=none;points=[[0,0.5],[1,0.5]];portConstraint=eastwest;fontSize=16;" vertex="1" parent="EYPC8Mh5b557JFCI0_-K-48">
          <mxGeometry width="270" height="83" as="geometry" />
        </mxCell>
        <mxCell id="EYPC8Mh5b557JFCI0_-K-50" value="Student Name" style="shape=partialRectangle;html=1;whiteSpace=wrap;connectable=0;strokeColor=inherit;overflow=hidden;fillColor=none;top=0;left=0;bottom=0;right=0;pointerEvents=1;fontSize=16;" vertex="1" parent="EYPC8Mh5b557JFCI0_-K-49">
          <mxGeometry width="68" height="83" as="geometry">
            <mxRectangle width="68" height="83" as="alternateBounds" />
          </mxGeometry>
        </mxCell>
        <mxCell id="EYPC8Mh5b557JFCI0_-K-51" value="Question" style="shape=partialRectangle;html=1;whiteSpace=wrap;connectable=0;strokeColor=inherit;overflow=hidden;fillColor=none;top=0;left=0;bottom=0;right=0;pointerEvents=1;fontSize=16;" vertex="1" parent="EYPC8Mh5b557JFCI0_-K-49">
          <mxGeometry x="68" width="67" height="83" as="geometry">
            <mxRectangle width="67" height="83" as="alternateBounds" />
          </mxGeometry>
        </mxCell>
        <mxCell id="EYPC8Mh5b557JFCI0_-K-52" value="Rating&amp;nbsp;" style="shape=partialRectangle;html=1;whiteSpace=wrap;connectable=0;strokeColor=inherit;overflow=hidden;fillColor=none;top=0;left=0;bottom=0;right=0;pointerEvents=1;fontSize=16;" vertex="1" parent="EYPC8Mh5b557JFCI0_-K-49">
          <mxGeometry x="135" width="68" height="83" as="geometry">
            <mxRectangle width="68" height="83" as="alternateBounds" />
          </mxGeometry>
        </mxCell>
        <mxCell id="EYPC8Mh5b557JFCI0_-K-61" value="&amp;nbsp;&lt;font style=&quot;font-size: 14px;&quot;&gt;Comment&lt;/font&gt;&amp;nbsp;" style="shape=partialRectangle;html=1;whiteSpace=wrap;connectable=0;strokeColor=inherit;overflow=hidden;fillColor=none;top=0;left=0;bottom=0;right=0;pointerEvents=1;fontSize=16;" vertex="1" parent="EYPC8Mh5b557JFCI0_-K-49">
          <mxGeometry x="203" width="67" height="83" as="geometry">
            <mxRectangle width="67" height="83" as="alternateBounds" />
          </mxGeometry>
        </mxCell>
        <mxCell id="EYPC8Mh5b557JFCI0_-K-53" value="" style="shape=tableRow;horizontal=0;startSize=0;swimlaneHead=0;swimlaneBody=0;strokeColor=inherit;top=0;left=0;bottom=0;right=0;collapsible=0;dropTarget=0;fillColor=none;points=[[0,0.5],[1,0.5]];portConstraint=eastwest;fontSize=16;" vertex="1" parent="EYPC8Mh5b557JFCI0_-K-48">
          <mxGeometry y="83" width="270" height="84" as="geometry" />
        </mxCell>
        <mxCell id="EYPC8Mh5b557JFCI0_-K-54" value="Neha" style="shape=partialRectangle;html=1;whiteSpace=wrap;connectable=0;strokeColor=inherit;overflow=hidden;fillColor=none;top=0;left=0;bottom=0;right=0;pointerEvents=1;fontSize=16;" vertex="1" parent="EYPC8Mh5b557JFCI0_-K-53">
          <mxGeometry width="68" height="84" as="geometry">
            <mxRectangle width="68" height="84" as="alternateBounds" />
          </mxGeometry>
        </mxCell>
        <mxCell id="EYPC8Mh5b557JFCI0_-K-55" value="How well does faculty explain?" style="shape=partialRectangle;html=1;whiteSpace=wrap;connectable=0;strokeColor=inherit;overflow=hidden;fillColor=none;top=0;left=0;bottom=0;right=0;pointerEvents=1;fontSize=16;" vertex="1" parent="EYPC8Mh5b557JFCI0_-K-53">
          <mxGeometry x="68" width="67" height="84" as="geometry">
            <mxRectangle width="67" height="84" as="alternateBounds" />
          </mxGeometry>
        </mxCell>
        <mxCell id="EYPC8Mh5b557JFCI0_-K-56" value="&amp;nbsp;⭐⭐⭐" style="shape=partialRectangle;html=1;whiteSpace=wrap;connectable=0;strokeColor=inherit;overflow=hidden;fillColor=none;top=0;left=0;bottom=0;right=0;pointerEvents=1;fontSize=16;" vertex="1" parent="EYPC8Mh5b557JFCI0_-K-53">
          <mxGeometry x="135" width="68" height="84" as="geometry">
            <mxRectangle width="68" height="84" as="alternateBounds" />
          </mxGeometry>
        </mxCell>
        <mxCell id="EYPC8Mh5b557JFCI0_-K-62" value="&amp;nbsp;Very clear&amp;nbsp; &amp;nbsp;" style="shape=partialRectangle;html=1;whiteSpace=wrap;connectable=0;strokeColor=inherit;overflow=hidden;fillColor=none;top=0;left=0;bottom=0;right=0;pointerEvents=1;fontSize=16;" vertex="1" parent="EYPC8Mh5b557JFCI0_-K-53">
          <mxGeometry x="203" width="67" height="84" as="geometry">
            <mxRectangle width="67" height="84" as="alternateBounds" />
          </mxGeometry>
        </mxCell>
        <mxCell id="EYPC8Mh5b557JFCI0_-K-57" value="" style="shape=tableRow;horizontal=0;startSize=0;swimlaneHead=0;swimlaneBody=0;strokeColor=inherit;top=0;left=0;bottom=0;right=0;collapsible=0;dropTarget=0;fillColor=none;points=[[0,0.5],[1,0.5]];portConstraint=eastwest;fontSize=16;" vertex="1" parent="EYPC8Mh5b557JFCI0_-K-48">
          <mxGeometry y="167" width="270" height="83" as="geometry" />
        </mxCell>
        <mxCell id="EYPC8Mh5b557JFCI0_-K-58" value="divya" style="shape=partialRectangle;html=1;whiteSpace=wrap;connectable=0;strokeColor=inherit;overflow=hidden;fillColor=none;top=0;left=0;bottom=0;right=0;pointerEvents=1;fontSize=16;" vertex="1" parent="EYPC8Mh5b557JFCI0_-K-57">
          <mxGeometry width="68" height="83" as="geometry">
            <mxRectangle width="68" height="83" as="alternateBounds" />
          </mxGeometry>
        </mxCell>
        <mxCell id="EYPC8Mh5b557JFCI0_-K-59" value="Does faculty clear doubts?" style="shape=partialRectangle;html=1;whiteSpace=wrap;connectable=0;strokeColor=inherit;overflow=hidden;fillColor=none;top=0;left=0;bottom=0;right=0;pointerEvents=1;fontSize=16;" vertex="1" parent="EYPC8Mh5b557JFCI0_-K-57">
          <mxGeometry x="68" width="67" height="83" as="geometry">
            <mxRectangle width="67" height="83" as="alternateBounds" />
          </mxGeometry>
        </mxCell>
        <mxCell id="EYPC8Mh5b557JFCI0_-K-60" value="&amp;nbsp;⭐⭐⭐" style="shape=partialRectangle;html=1;whiteSpace=wrap;connectable=0;strokeColor=inherit;overflow=hidden;fillColor=none;top=0;left=0;bottom=0;right=0;pointerEvents=1;fontSize=16;" vertex="1" parent="EYPC8Mh5b557JFCI0_-K-57">
          <mxGeometry x="135" width="68" height="83" as="geometry">
            <mxRectangle width="68" height="83" as="alternateBounds" />
          </mxGeometry>
        </mxCell>
        <mxCell id="EYPC8Mh5b557JFCI0_-K-63" value="&amp;nbsp;Helpful&amp;nbsp;&amp;nbsp;" style="shape=partialRectangle;html=1;whiteSpace=wrap;connectable=0;strokeColor=inherit;overflow=hidden;fillColor=none;top=0;left=0;bottom=0;right=0;pointerEvents=1;fontSize=16;" vertex="1" parent="EYPC8Mh5b557JFCI0_-K-57">
          <mxGeometry x="203" width="67" height="83" as="geometry">
            <mxRectangle width="67" height="83" as="alternateBounds" />
          </mxGeometry>
        </mxCell>
        <mxCell id="EYPC8Mh5b557JFCI0_-K-70" value="Faculty: Prof. Shinde" style="rounded=0;whiteSpace=wrap;html=1;" vertex="1" parent="1">
          <mxGeometry x="700" y="820" width="180" height="30" as="geometry" />
        </mxCell>
        <mxCell id="EYPC8Mh5b557JFCI0_-K-71" value="Subject: Java Programming" style="rounded=0;whiteSpace=wrap;html=1;" vertex="1" parent="1">
          <mxGeometry x="700" y="870" width="180" height="30" as="geometry" />
        </mxCell>
        <mxCell id="EYPC8Mh5b557JFCI0_-K-74" value="⭐ ⭐ ⭐ ⭐" style="text;html=1;align=center;verticalAlign=middle;whiteSpace=wrap;rounded=0;" vertex="1" parent="1">
          <mxGeometry x="695" y="370" width="105" height="30" as="geometry" />
        </mxCell>
        <mxCell id="EYPC8Mh5b557JFCI0_-K-75" value="⭐ ⭐ ⭐ ⭐" style="text;html=1;align=center;verticalAlign=middle;whiteSpace=wrap;rounded=0;" vertex="1" parent="1">
          <mxGeometry x="700" y="450" width="95" height="30" as="geometry" />
        </mxCell>
        <mxCell id="EYPC8Mh5b557JFCI0_-K-76" value="Comments" style="text;html=1;align=center;verticalAlign=middle;whiteSpace=wrap;rounded=0;" vertex="1" parent="1">
          <mxGeometry x="700" y="490" width="60" height="30" as="geometry" />
        </mxCell>
      </root>
    </mxGraphModel>
  </diagram>
</mxfile>
